<?xml version="1.0" encoding="UTF-8"?>
<svg id="Layer_1" data-name="Layer 1" xmlns="http://www.w3.org/2000/svg" viewBox="0 0 748.78 750">
  <defs>
    <style>
      .cls-1 {
        fill: #006eff;
      }
    </style>
  </defs>
  <path class="cls-1" d="m595.56,397.7c176.52-4.15,212.52-248.39,44.62-303.32-27.44-7.31-41.71-8.93-73.59-4.37-17.92,3.43-36.17,6.41-53.25-4.18-12.16-7.91-15.01-14.19-24.92-26.44,0,0-5.09-6.33-10.22-11.97-12.95-14.21-26.98-23.08-32.36-26.44-42.27-27.97-100.61-27.98-142.89,0-5.39,3.36-19.42,12.23-32.36,26.44-11.58,12.54-13.91,17.62-21.65,26.47-8.74,11.06-23.59,19.24-39.06,19.31-10.07.61-19.72-2.13-27.68-3.19-31.89-4.61-46.27-2.98-73.6,4.37C-59.14,149.24-23.48,393.5,153.22,397.7c2.79,0,5.04,2.25,5.04,5.04v196.64c0,2.79-2.25,5.04-5.04,5.04h-8.4c-27.83,0-50.39,22.56-50.39,50.39v44.79c0,27.83,22.56,50.39,50.39,50.39h459.14c27.83,0,50.39-22.56,50.39-50.39v-44.79c0-27.83-22.56-50.39-50.39-50.39h-8.42c-2.78-.01-5.02-2.26-5.02-5.04v-196.64c0-2.79,2.25-5.04,5.04-5.04Zm-1.12,249.84c9.27,0,16.8,7.53,16.8,16.8v25.76c0,9.27-7.53,16.8-16.8,16.8H154.34c-9.27,0-16.8-7.53-16.8-16.8v-25.76c0-9.27,7.53-16.8,16.8-16.8h440.1Zm-41.78-267.52c-3.44,6.63-5.25,14.03-5.25,21.61,0,0,0,197.78,0,197.78-.01,2.78-2.26,5.02-5.04,5.02H206.4c-2.77-.01-5.02-2.26-5.02-5.04h-.01v-197.75c0-7.57-1.81-15-5.25-21.61-7.83-15.11-23.6-25.42-41.78-25.42-74.51,1.73-130.36-76.85-106.88-145.54,15.54-50.41,65.33-77.93,106.88-78.43,15.85.69,28.49,4.31,41.75,5.74,19.63,1.79,34.86-1.27,51.57-8.54,17.59-8.57,26.2-15.73,36.81-28.26,7.79-10.92,15.36-20.56,22.74-27.31,19.43-19.28,44.77-29.25,67.18-29.96,22.48.75,47.68,10.64,67.18,29.96,4.67,4.45,10.5,10.62,16.47,18.7,1.07,1.75,10.33,14.12,12.29,15.43,10.42,11.34,30.22,23.05,48.09,27.66,13.63,3.26,29.23,3.83,45.05.8,22.83-3.67,33.81-7.83,63.14,1.39,120.17,37.24,99.44,214.35-32.16,218.37-18.19,0-33.95,10.31-41.78,25.42Z"/>
  <path class="cls-1" d="m374.39,564.64c-11.91,0-21.56-9.65-21.56-21.56v-123.82c0-11.91,9.65-21.56,21.56-21.56,11.91,0,21.56,9.65,21.56,21.56v123.82c0,11.91-9.65,21.56-21.56,21.56Z"/>
  <path class="cls-1" d="m286.48,564.64c-11.91,0-21.56-9.65-21.56-21.56v-123.82c0-11.91,9.65-21.56,21.56-21.56,11.91,0,21.56,9.65,21.56,21.56v123.82c0,11.91-9.65,21.56-21.56,21.56Z"/>
  <path class="cls-1" d="m462.3,564.64c-11.91,0-21.56-9.65-21.56-21.56v-123.82c0-11.91,9.65-21.56,21.56-21.56,11.91,0,21.56,9.65,21.56,21.56v123.82c0,11.91-9.65,21.56-21.56,21.56Z"/>
</svg>