<?xml version="1.0" encoding="utf-8"?>
<!-- Generator: Adobe Illustrator 27.5.0, SVG Export Plug-In . SVG Version: 6.00 Build 0)  -->
<svg version="1.1" id="Layer_1" xmlns="http://www.w3.org/2000/svg" xmlns:xlink="http://www.w3.org/1999/xlink" x="0px" y="0px"
	 viewBox="0 0 998.38 1000" style="enable-background:new 0 0 998.38 1000;" xml:space="preserve">
<style type="text/css">
	.st0{fill:#006EFF;}
</style>
<g>
	<path class="st0" d="M794.08,530.26c235.36-5.53,283.36-331.19,59.5-404.43c-36.59-9.74-55.62-11.91-98.13-5.82
		c-23.89,4.57-48.23,8.54-71-5.57c-16.22-10.54-20.01-18.93-33.22-35.25c0,0-6.79-8.44-13.63-15.96
		c-17.26-18.95-35.97-30.77-43.15-35.25c-56.36-37.29-134.15-37.31-190.52,0c-7.18,4.48-25.89,16.3-43.15,35.25
		c-15.44,16.71-18.55,23.49-28.86,35.3c-11.65,14.74-31.45,25.65-52.08,25.74c-13.43,0.81-26.3-2.84-36.91-4.25
		c-42.52-6.15-61.7-3.97-98.13,5.82c-223.65,73.15-176.1,398.83,59.51,404.43c3.71,0,6.72,3,6.72,6.72v262.19
		c0,3.72-3,6.72-6.72,6.72h-11.2c-37.1,0-67.19,30.09-67.19,67.19v59.72c0,37.1,30.09,67.19,67.19,67.19h612.18
		c37.1,0,67.19-30.09,67.19-67.19v-59.72c0-37.1-30.09-67.19-67.19-67.19h-11.23c-3.7-0.01-6.69-3.02-6.69-6.72V536.98
		C787.36,533.26,790.36,530.26,794.08,530.26z M792.59,863.38c12.36,0,22.4,10.03,22.4,22.4v34.34c0,12.36-10.03,22.4-22.4,22.4
		h-586.8c-12.36,0-22.4-10.03-22.4-22.4v-34.34c0-12.36,10.03-22.4,22.4-22.4H792.59z M736.88,506.69c-4.59,8.84-7,18.7-7,28.82
		c0,0,0,263.7,0,263.7c-0.01,3.7-3.02,6.69-6.72,6.69c-149.32,0-298.63,0-447.95,0c-3.69-0.01-6.69-3.02-6.69-6.72h-0.02V535.5
		c-0.01-10.09-2.41-20-7-28.82c-10.44-20.14-31.46-33.89-55.71-33.89c-99.35,2.3-173.81-102.47-142.5-194.05
		c20.72-67.21,87.11-103.91,142.5-104.58c21.13,0.92,37.98,5.75,55.66,7.66c26.18,2.39,46.48-1.69,68.76-11.39
		c23.46-11.42,34.94-20.97,49.08-37.69c10.39-14.56,20.48-27.42,30.33-36.42c25.91-25.7,59.69-39,89.57-39.94
		c29.98,0.99,63.57,14.18,89.57,39.94c6.23,5.93,14.01,14.15,21.96,24.93c1.43,2.34,13.77,18.83,16.38,20.57
		c13.89,15.13,40.3,30.73,64.11,36.88c18.17,4.35,38.98,5.1,60.07,1.06c30.44-4.89,45.09-10.44,84.18,1.85
		c160.23,49.65,132.59,285.8-42.88,291.16C768.34,472.79,747.31,486.54,736.88,506.69z"/>
	<path class="st0" d="M499.19,752.86c-15.87,0-28.74-12.87-28.74-28.74V559.02c0-15.87,12.87-28.74,28.74-28.74
		c15.87,0,28.74,12.87,28.74,28.74v165.09C527.93,739.99,515.06,752.86,499.19,752.86z"/>
	<path class="st0" d="M381.98,752.86c-15.87,0-28.74-12.87-28.74-28.74V559.02c0-15.87,12.87-28.74,28.74-28.74
		c15.87,0,28.74,12.87,28.74,28.74v165.09C410.72,739.99,397.85,752.86,381.98,752.86z"/>
	<path class="st0" d="M616.4,752.86c-15.87,0-28.74-12.87-28.74-28.74V559.02c0-15.87,12.87-28.74,28.74-28.74
		c15.87,0,28.74,12.87,28.74,28.74v165.09C645.14,739.99,632.27,752.86,616.4,752.86z"/>
</g>
</svg>
