<?xml version="1.0" encoding="utf-8"?>
<!-- Generator: Adobe Illustrator 27.5.0, SVG Export Plug-In . SVG Version: 6.00 Build 0)  -->
<svg version="1.1" id="Layer_1" xmlns="http://www.w3.org/2000/svg" xmlns:xlink="http://www.w3.org/1999/xlink" x="0px" y="0px"
	 viewBox="0 0 997.88 1000" style="enable-background:new 0 0 997.88 1000;" xml:space="preserve">
<style type="text/css">
	.st0{fill:#006EFF;}
</style>
<g>
	<path class="st0" d="M204.64,543.55c-14.65-2.43-29.12-4-43.19-7.29c-87.3-20.37-151.9-95.11-160.22-184.4
		c-6.29-67.59,11.19-127.48,60.33-175.26c50.7-49.29,112.17-69.48,182.78-60.04c12.93,1.73,25.84,4.13,38.82,4.77
		c17.23,0.84,31.05-6.91,42.4-19.71c16.23-18.3,30.86-38.62,49.49-54.08C435.61-2.68,503.41-13.97,576.3,17.77
		c34.87,15.19,63.66,39.42,84.9,70.88c20.31,30.08,46.58,36.85,80.59,29.97c108.38-21.92,215.61,41.53,246.61,144.76
		c34.25,114.03-27.31,234.54-138.03,268.8c-17.09,5.29-35.35,6.82-53.07,10.08c-1.41,0.26-2.85,0.38-4.61,0.61
		c0,80.62,0,160.98,0,241.54c6.21,0.64,12.23,0.85,18.08,1.94c34.96,6.53,61.46,34.33,63.51,69.9c1.54,26.58,2.03,53.64-1.21,79.97
		c-4.47,36.27-37.61,63.39-74.25,63.55c-91.34,0.39-182.68,0.19-274.02,0.2c-107.05,0.01-214.11,0.04-321.16-0.02
		c-41.54-0.02-75.26-26.24-79.7-66.13c-3.07-27.65-2.9-56.21,0.23-83.87c4.25-37.5,37.52-64.15,75.41-64.95
		c1.57-0.03,3.14-0.22,5.06-0.35C204.64,703.92,204.64,623.55,204.64,543.55z M710.37,784.76c0-2.64,0-4.94,0-7.25
		c0-80.76-0.06-161.52,0.04-242.29c0.04-36.59,25.17-66.98,60.79-73.17c10.8-1.88,21.95-1.69,32.83-3.18
		c53.51-7.36,94.76-44.7,107.95-97.38c13.18-52.64-5.3-107.3-47.6-137.65c-35.17-25.23-73.7-31.77-116.64-23.18
		c-62.12,12.44-112.41-8.94-150.18-59.99c-6.86-9.28-14.48-18.25-23-25.99c-35.82-32.52-79.5-44.55-125.81-19.05
		c-22.18,12.22-38.06,30.77-53.27,50.46c-34.14,44.19-79.47,62.8-134.93,56.67c-17.91-1.98-35.98-7.15-53.64-5.95
		c-74.96,5.11-134.44,68.89-125.55,146.78c7.32,64.06,64.88,116.93,128.1,117.17c46.36,0.17,77.59,31.5,77.6,77.88
		c0.01,77.68,0,155.36,0,233.03c0,4.32,0,8.63,0,13.09C428.73,784.76,569.17,784.76,710.37,784.76z M498.73,917.99
		c94.25,0,188.5,0,282.75-0.01c8.64,0,11.68-3.02,11.72-11.65c0.04-9.54,0.02-19.09-0.01-28.63c-0.02-7.18-3.52-10.81-10.84-10.81
		c-189.09,0.02-378.18,0.02-567.27,0c-7.33,0-10.81,3.64-10.83,10.82c-0.02,9.1-0.04,18.2-0.02,27.31
		c0.03,10.37,2.66,12.97,13.06,12.97C311.11,918,404.92,918,498.73,917.99z"/>
	<path class="st0" d="M533.28,638.19c0,25.98,0.02,51.95-0.01,77.93c-0.03,21.04-14.76,36.75-34.48,36.83
		c-19.68,0.08-34.65-15.55-34.69-36.66c-0.1-52.1-0.09-104.2-0.01-156.3c0.04-21.37,14.94-36.87,34.97-36.74
		c19.72,0.13,34.19,15.75,34.21,37.01C533.3,586.24,533.28,612.22,533.28,638.19z"/>
	<path class="st0" d="M647.21,637.75c0,26.41,0.04,52.83-0.01,79.24c-0.04,20.36-14.92,35.89-34.32,35.96
		c-19.38,0.07-34.48-15.45-34.5-35.79c-0.07-52.83-0.08-105.66,0.01-158.49c0.03-20.37,15.1-35.55,34.77-35.42
		c19.37,0.13,34,15.41,34.04,35.69C647.25,585.22,647.21,611.48,647.21,637.75z"/>
	<path class="st0" d="M419.02,638.34c0,26.27,0.04,52.54-0.01,78.8c-0.04,20.28-15.09,35.86-34.45,35.81
		c-19.25-0.05-34.32-15.36-34.37-35.5c-0.13-52.98-0.13-105.95,0-158.93c0.05-20.16,15.1-35.3,34.49-35.27
		c19.45,0.03,34.27,15.23,34.32,35.39C419.07,585.21,419.02,611.77,419.02,638.34z"/>
</g>
<g>
</g>
<g>
</g>
<g>
</g>
<g>
</g>
<g>
</g>
<g>
</g>
<g>
</g>
<g>
</g>
<g>
</g>
<g>
</g>
<g>
</g>
<g>
</g>
<g>
</g>
<g>
</g>
<g>
</g>
</svg>
